<?xml version="1.0" encoding="UTF-8"?>
<svg id="_Слой_1" data-name="Слой_1" xmlns="http://www.w3.org/2000/svg" version="1.1" viewBox="0 0 595.28 841.89">
  <!-- Generator: Adobe Illustrator 29.3.1, SVG Export Plug-In . SVG Version: 2.1.0 Build 151)  -->
  <defs>
    <style>
      .st0 {
        fill: #1d1d1b;
        stroke: #1d1d1b;
        stroke-miterlimit: 10;
      }
    </style>
  </defs>
  <path class="st0" d="M316.22,367.56c25.59,0,46.33-20.74,46.33-46.33s-20.74-46.33-46.33-46.33c-22.98,0-42.04,16.73-45.69,38.67h-1.29c-3.66-21.94-22.71-38.67-45.69-38.67-25.59,0-46.33,20.74-46.33,46.33s20.74,46.33,46.33,46.33c0,19.71,12.32,36.54,29.67,43.23v220.1h85.33v-21.33h-52v-16.44h37.04v-18.67h-37.04v-163.66c17.35-6.69,29.67-23.52,29.67-43.23ZM269.49,394.91c-8.23,0-14.9-6.67-14.9-14.9s6.67-14.9,14.9-14.9,14.9,6.67,14.9,14.9-6.67,14.9-14.9,14.9Z"/>
</svg>